<?xml version="1.0" encoding="UTF-8"?>
<!DOCTYPE svg PUBLIC "-//W3C//DTD SVG 1.1//EN" "http://www.w3.org/Graphics/SVG/1.1/DTD/svg11.dtd">
<svg xmlns="http://www.w3.org/2000/svg" version="1.1" width="512px" height="512px" style="shape-rendering:geometricPrecision; text-rendering:geometricPrecision; image-rendering:optimizeQuality; fill-rule:evenodd; clip-rule:evenodd" xmlns:xlink="http://www.w3.org/1999/xlink">
<g><path style="opacity:0.98" fill="#020204" d="M 425.5,104.5 C 422.03,105.125 419.196,104.125 417,101.5C 408.701,76.0324 391.201,62.3657 364.5,60.5C 341.452,61.7208 324.952,72.7208 315,93.5C 307.181,116.779 312.014,136.946 329.5,154C 339.95,162.65 351.95,166.817 365.5,166.5C 383.226,165.888 397.393,158.554 408,144.5C 411.748,139.002 414.415,133.002 416,126.5C 418.239,123.038 421.406,121.705 425.5,122.5C 427.752,122.916 429.252,124.249 430,126.5C 430.388,134.418 428.388,141.751 424,148.5C 420.934,152.722 418.101,157.056 415.5,161.5C 422.303,179.24 429.303,196.907 436.5,214.5C 439.428,215.484 442.428,215.817 445.5,215.5C 445.13,209.075 445.63,202.742 447,196.5C 449.222,192.612 452.388,189.779 456.5,188C 468.225,187.088 479.892,187.421 491.5,189C 501.661,193.984 508.328,201.818 511.5,212.5C 511.5,216.167 511.5,219.833 511.5,223.5C 509.3,226.858 506.3,229.358 502.5,231C 482.825,231.167 463.158,231.667 443.5,232.5C 455.132,238.984 466.798,245.484 478.5,252C 486.264,258.36 490.764,266.527 492,276.5C 492.667,317.833 492.667,359.167 492,400.5C 491.557,409.499 488.557,417.499 483,424.5C 482.667,432.167 482.333,439.833 482,447.5C 478.699,458.803 471.199,464.97 459.5,466C 444.464,466.876 429.464,466.543 414.5,465C 403.067,460.392 397.401,451.892 397.5,439.5C 325.166,439.667 252.833,439.5 180.5,439C 176.482,438.137 174.482,435.637 174.5,431.5C 175.026,428.293 176.692,425.793 179.5,424C 267.166,423.5 354.833,423.333 442.5,423.5C 458.905,426.055 470.071,419.722 476,404.5C 476.5,391.504 476.667,378.504 476.5,365.5C 468.833,365.5 461.167,365.5 453.5,365.5C 436.163,365.333 418.83,365.5 401.5,366C 393.342,370.15 386.342,375.817 380.5,383C 378.283,384.275 375.949,385.275 373.5,386C 294.5,386.667 215.5,386.667 136.5,386C 129.624,382.13 123.624,377.13 118.5,371C 115.211,368.522 111.544,366.856 107.5,366C 83.1689,365.5 58.8356,365.333 34.5,365.5C 34.3334,378.504 34.5001,391.504 35,404.5C 37.7392,413.573 43.5725,419.74 52.5,423C 85.5,423.333 118.5,423.667 151.5,424C 154.892,425.542 156.892,428.042 157.5,431.5C 157.518,435.637 155.518,438.137 151.5,439C 138.838,439.5 126.171,439.667 113.5,439.5C 113.599,451.892 107.933,460.392 96.5,465C 79.496,466.983 62.496,466.983 45.5,465C 36.9035,462.071 31.4035,456.237 29,447.5C 28.6667,439.833 28.3333,432.167 28,424.5C 22.4427,417.499 19.4427,409.499 19,400.5C 18.3333,359.167 18.3333,317.833 19,276.5C 20.2362,266.527 24.7362,258.36 32.5,252C 44.2017,245.484 55.8684,238.984 67.5,232.5C 47.8418,231.667 28.1751,231.167 8.5,231C 4.69966,229.358 1.69966,226.858 -0.5,223.5C -0.5,219.833 -0.5,216.167 -0.5,212.5C 2.67238,201.818 9.33904,193.984 19.5,189C 31.1085,187.421 42.7751,187.088 54.5,188C 58.6118,189.779 61.7785,192.612 64,196.5C 65.3696,202.742 65.8696,209.075 65.5,215.5C 68.5719,215.817 71.5719,215.484 74.5,214.5C 81.6104,197.279 88.4438,179.945 95,162.5C 106.458,136.357 126.291,121.19 154.5,117C 201.499,116.5 248.499,116.333 295.5,116.5C 298.012,73.155 320.845,49.155 364,44.5C 395.044,46.2457 416.711,61.2457 429,89.5C 430.434,93.4065 430.767,97.4065 430,101.5C 428.871,103.141 427.371,104.141 425.5,104.5 Z"/></g>
<g><path style="opacity:1" fill="#22eea6" d="M 364.5,60.5 C 395.514,82.0613 403.014,110.061 387,144.5C 381.641,153.691 374.475,161.024 365.5,166.5C 351.95,166.817 339.95,162.65 329.5,154C 312.014,136.946 307.181,116.779 315,93.5C 324.952,72.7208 341.452,61.7208 364.5,60.5 Z"/></g>
<g><path style="opacity:1" fill="#25cf90" d="M 364.5,60.5 C 391.201,62.3657 408.701,76.0324 417,101.5C 419.196,104.125 422.03,105.125 425.5,104.5C 425.5,110.5 425.5,116.5 425.5,122.5C 421.406,121.705 418.239,123.038 416,126.5C 414.415,133.002 411.748,139.002 408,144.5C 397.393,158.554 383.226,165.888 365.5,166.5C 374.475,161.024 381.641,153.691 387,144.5C 403.014,110.061 395.514,82.0613 364.5,60.5 Z"/></g>
<g><path style="opacity:1" fill="#010503" d="M 370.5,86.5 C 379.328,85.1607 382.828,88.8274 381,97.5C 377.799,101.036 374.299,104.203 370.5,107C 373.938,107.891 377.104,109.391 380,111.5C 381.373,113.695 381.706,116.029 381,118.5C 373.856,125.976 366.356,133.143 358.5,140C 353.544,142.607 349.711,141.44 347,136.5C 346.333,134.833 346.333,133.167 347,131.5C 350.167,127 354,123.167 358.5,120C 351.049,119.556 347.549,115.723 348,108.5C 355.342,100.992 362.842,93.6582 370.5,86.5 Z"/></g>
<g><path style="opacity:1" fill="#2fa2f4" d="M 303.5,144.5 C 251.008,146.165 198.341,147.165 145.5,147.5C 140.022,147.369 134.689,148.202 129.5,150C 125.167,152.013 120.834,153.68 116.5,155C 126.601,142.448 139.601,134.782 155.5,132C 203.167,131.333 250.833,131.333 298.5,132C 300.071,136.214 301.737,140.38 303.5,144.5 Z"/></g>
<g><path style="opacity:1" fill="#1d6498" d="M 303.5,144.5 C 304.404,145.209 304.737,146.209 304.5,147.5C 251.5,147.5 198.5,147.5 145.5,147.5C 198.341,147.165 251.008,146.165 303.5,144.5 Z"/></g>
<g><path style="opacity:1" fill="#b3d9fb" d="M 162.5,162.5 C 140.5,184.833 118.5,207.167 96.5,229.5C 92.8183,229.665 89.1516,229.499 85.5,229C 89.6621,218.517 93.8287,208.017 98,197.5C 111.169,170.827 132.669,159.16 162.5,162.5 Z"/></g>
<g><path style="opacity:1" fill="#d8ebfd" d="M 162.5,162.5 C 178.833,162.5 195.167,162.5 211.5,162.5C 189.5,184.833 167.5,207.167 145.5,229.5C 129.167,229.5 112.833,229.5 96.5,229.5C 118.5,207.167 140.5,184.833 162.5,162.5 Z"/></g>
<g><path style="opacity:1" fill="#b5dbfd" d="M 211.5,162.5 C 217.833,162.5 224.167,162.5 230.5,162.5C 208.5,184.833 186.5,207.167 164.5,229.5C 158.167,229.5 151.833,229.5 145.5,229.5C 167.5,207.167 189.5,184.833 211.5,162.5 Z"/></g>
<g><path style="opacity:1" fill="#d8ebfc" d="M 230.5,162.5 C 241.167,162.5 251.833,162.5 262.5,162.5C 240.5,184.833 218.5,207.167 196.5,229.5C 185.833,229.5 175.167,229.5 164.5,229.5C 186.5,207.167 208.5,184.833 230.5,162.5 Z"/></g>
<g><path style="opacity:1" fill="#b4dafc" d="M 262.5,162.5 C 276.833,162.5 291.167,162.5 305.5,162.5C 320.85,190.838 344.517,202.005 376.5,196C 380.207,194.598 383.874,193.098 387.5,191.5C 393.284,203.852 398.284,216.518 402.5,229.5C 383.164,229.333 363.83,229.5 344.5,230C 341.211,231.41 339.544,233.91 339.5,237.5C 333.5,237.5 327.5,237.5 321.5,237.5C 321.531,233.403 319.531,230.903 315.5,230C 275.835,229.5 236.168,229.333 196.5,229.5C 218.5,207.167 240.5,184.833 262.5,162.5 Z"/></g>
<g><path style="opacity:1" fill="#8cc8f9" d="M 305.5,162.5 C 309.514,162.334 313.514,162.501 317.5,163C 333.253,177.806 351.919,183.806 373.5,181C 381.404,179.442 389.071,177.442 396.5,175C 401.415,179.244 405.581,184.077 409,189.5C 414.895,202.521 420.395,215.688 425.5,229C 417.841,229.5 410.174,229.666 402.5,229.5C 398.284,216.518 393.284,203.852 387.5,191.5C 383.874,193.098 380.207,194.598 376.5,196C 344.517,202.005 320.85,190.838 305.5,162.5 Z"/></g>
<g><path style="opacity:1" fill="#2fa3f5" d="M 49.5,203.5 C 49.5,207.5 49.5,211.5 49.5,215.5C 38.1158,216.144 27.1158,215.477 16.5,213.5C 18.2569,208.575 21.5902,205.075 26.5,203C 34.3446,202.178 42.0113,202.344 49.5,203.5 Z"/></g>
<g><path style="opacity:1" fill="#2fa3f5" d="M 494.5,213.5 C 483.884,215.477 472.884,216.144 461.5,215.5C 461.5,211.5 461.5,207.5 461.5,203.5C 468.989,202.344 476.655,202.178 484.5,203C 489.41,205.075 492.743,208.575 494.5,213.5 Z"/></g>
<g><path style="opacity:1" fill="#1f699f" d="M 49.5,203.5 C 50.4849,207.634 50.8182,211.968 50.5,216.5C 38.8333,216.5 27.1667,216.5 15.5,216.5C 15.2627,215.209 15.596,214.209 16.5,213.5C 27.1158,215.477 38.1158,216.144 49.5,215.5C 49.5,211.5 49.5,207.5 49.5,203.5 Z"/></g>
<g><path style="opacity:1" fill="#1f699e" d="M 461.5,203.5 C 461.5,207.5 461.5,211.5 461.5,215.5C 472.884,216.144 483.884,215.477 494.5,213.5C 495.404,214.209 495.737,215.209 495.5,216.5C 483.833,216.5 472.167,216.5 460.5,216.5C 460.182,211.968 460.515,207.634 461.5,203.5 Z"/></g>
<g><path style="opacity:1" fill="#2fa3f5" d="M 321.5,237.5 C 327.5,237.5 333.5,237.5 339.5,237.5C 339.444,240.561 340.778,242.728 343.5,244C 373.167,244.333 402.833,244.667 432.5,245C 433.91,245.368 434.91,246.201 435.5,247.5C 426.436,251.688 417.103,255.188 407.5,258C 391.401,262.024 375.401,266.358 359.5,271C 289.833,271.667 220.167,271.667 150.5,271C 125.436,264.735 100.769,257.235 76.5,248.5C 75.2888,247.726 75.2888,246.893 76.5,246C 156.752,244.672 237.085,244.006 317.5,244C 319.887,242.453 321.22,240.287 321.5,237.5 Z"/></g>
<g><path style="opacity:1" fill="#575f66" d="M 60.5,258.5 C 58.5267,267.775 57.86,277.442 58.5,287.5C 57.506,277.681 57.1726,267.681 57.5,257.5C 58.791,257.263 59.791,257.596 60.5,258.5 Z"/></g>
<g><path style="opacity:1" fill="#d6e9fa" d="M 60.5,258.5 C 82.853,267.839 105.853,275.172 129.5,280.5C 124.533,285.312 119.2,289.646 113.5,293.5C 95.0816,291.857 76.7482,289.857 58.5,287.5C 57.86,277.442 58.5267,267.775 60.5,258.5 Z"/></g>
<g><path style="opacity:1" fill="#b8d2e1" d="M 451.5,258.5 C 452.494,267.986 452.827,277.652 452.5,287.5C 446.526,288.385 440.526,289.051 434.5,289.5C 435.134,281.097 434.467,273.097 432.5,265.5C 438.539,262.595 444.873,260.262 451.5,258.5 Z"/></g>
<g><path style="opacity:1" fill="#4c575d" d="M 451.5,258.5 C 451.56,257.957 451.893,257.624 452.5,257.5C 453.823,267.659 453.823,277.659 452.5,287.5C 452.827,277.652 452.494,267.986 451.5,258.5 Z"/></g>
<g><path style="opacity:1" fill="#2fa3f5" d="M 154.5,297.5 C 221.833,297.5 289.167,297.5 356.5,297.5C 363.593,302.38 371.259,306.213 379.5,309C 386.167,309.667 392.833,309.667 399.5,309C 417.527,306.893 435.527,304.726 453.5,302.5C 453.5,308.5 453.5,314.5 453.5,320.5C 461.167,320.5 468.833,320.5 476.5,320.5C 329.334,321.5 182.001,321.833 34.5,321.5C 34.3334,305.83 34.5001,290.163 35,274.5C 36.4766,270.015 39.1433,266.349 43,263.5C 43.3333,273.5 43.6667,283.5 44,293.5C 45.5,297.667 48.3333,300.5 52.5,302C 75.1508,304.711 97.8175,307.211 120.5,309.5C 126.339,309.759 132.006,308.926 137.5,307C 143.517,304.328 149.184,301.161 154.5,297.5 Z"/></g>
<g><path style="opacity:1" fill="#d4e7f8" d="M 432.5,265.5 C 434.467,273.097 435.134,281.097 434.5,289.5C 419.385,291.546 404.218,293.213 389,294.5C 379.997,294.249 372.164,291.083 365.5,285C 387.935,278.799 410.269,272.299 432.5,265.5 Z"/></g>
<g><path style="opacity:1" fill="#1b93f4" d="M 476.5,320.5 C 468.833,320.5 461.167,320.5 453.5,320.5C 453.5,314.5 453.5,308.5 453.5,302.5C 460.113,302.614 464.613,299.614 467,293.5C 467.168,283.816 467.668,274.149 468.5,264.5C 472.216,266.936 474.716,270.269 476,274.5C 476.5,289.83 476.667,305.163 476.5,320.5 Z"/></g>
<g><path style="opacity:1" fill="#b5d0de" d="M 129.5,280.5 C 134.713,282.291 140.046,283.791 145.5,285C 136.187,293.52 125.52,296.354 113.5,293.5C 119.2,289.646 124.533,285.312 129.5,280.5 Z"/></g>
<g><path style="opacity:1" fill="#1b95f8" d="M 356.5,297.5 C 289.167,297.5 221.833,297.5 154.5,297.5C 158.714,294.953 161.381,291.287 162.5,286.5C 224.5,286.5 286.5,286.5 348.5,286.5C 349.619,291.287 352.286,294.953 356.5,297.5 Z"/></g>
<g><path style="opacity:1" fill="#1576f6" d="M 152.5,342.5 C 152.5,343.5 152.5,344.5 152.5,345.5C 113.167,345.5 73.8333,345.5 34.5,345.5C 34.5,342.5 34.5,339.5 34.5,336.5C 73.8333,336.5 113.167,336.5 152.5,336.5C 152.5,338.5 152.5,340.5 152.5,342.5 Z"/></g>
<g><path style="opacity:1" fill="#094c66" d="M 195.5,370.5 C 232.168,370.667 268.835,370.5 305.5,370C 313.931,363.978 318.931,355.811 320.5,345.5C 269.833,345.5 219.167,345.5 168.5,345.5C 167.597,342.609 167.264,339.609 167.5,336.5C 226.167,336.5 284.833,336.5 343.5,336.5C 343.008,352.965 335.008,364.132 319.5,370C 297.868,371.133 276.201,371.633 254.5,371.5C 234.664,371.5 214.997,371.167 195.5,370.5 Z"/></g>
<g><path style="opacity:1" fill="#1476f6" d="M 476.5,349.5 C 468.833,349.5 461.167,349.5 453.5,349.5C 453.5,348.167 453.5,346.833 453.5,345.5C 421.833,345.5 390.167,345.5 358.5,345.5C 358.5,344.5 358.5,343.5 358.5,342.5C 358.5,340.5 358.5,338.5 358.5,336.5C 397.833,336.5 437.167,336.5 476.5,336.5C 476.5,340.833 476.5,345.167 476.5,349.5 Z"/></g>
<g><path style="opacity:1" fill="#1681f1" d="M 152.5,342.5 C 154.087,353.013 158.42,362.346 165.5,370.5C 156.853,371.665 148.186,371.832 139.5,371C 132.027,361.101 122.361,354.435 110.5,351C 85.1689,350.5 59.8355,350.333 34.5,350.5C 34.5,348.833 34.5,347.167 34.5,345.5C 73.8333,345.5 113.167,345.5 152.5,345.5C 152.5,344.5 152.5,343.5 152.5,342.5 Z"/></g>
<g><path style="opacity:1" fill="#0c5e7e" d="M 168.5,345.5 C 219.167,345.5 269.833,345.5 320.5,345.5C 318.931,355.811 313.931,363.978 305.5,370C 268.835,370.5 232.168,370.667 195.5,370.5C 181.722,367.391 172.722,359.058 168.5,345.5 Z"/></g>
<g><path style="opacity:1" fill="#1681f1" d="M 358.5,342.5 C 358.5,343.5 358.5,344.5 358.5,345.5C 390.167,345.5 421.833,345.5 453.5,345.5C 453.5,346.833 453.5,348.167 453.5,349.5C 461.167,349.5 468.833,349.5 476.5,349.5C 451.337,350.332 426.003,350.832 400.5,351C 388.72,354.406 379.053,361.073 371.5,371C 362.814,371.832 354.147,371.665 345.5,370.5C 352.58,362.346 356.913,353.013 358.5,342.5 Z"/></g>
<g><path style="opacity:1" fill="#63b8fb" d="M 453.5,365.5 C 453.667,378.837 453.5,392.171 453,405.5C 450.763,412.316 447.263,418.316 442.5,423.5C 354.833,423.333 267.166,423.5 179.5,424C 176.692,425.793 175.026,428.293 174.5,431.5C 168.833,431.5 163.167,431.5 157.5,431.5C 156.892,428.042 154.892,425.542 151.5,424C 118.5,423.667 85.5,423.333 52.5,423C 43.5725,419.74 37.7392,413.573 35,404.5C 34.5001,391.504 34.3334,378.504 34.5,365.5C 58.8356,365.333 83.1689,365.5 107.5,366C 111.544,366.856 115.211,368.522 118.5,371C 123.624,377.13 129.624,382.13 136.5,386C 215.5,386.667 294.5,386.667 373.5,386C 375.949,385.275 378.283,384.275 380.5,383C 386.342,375.817 393.342,370.15 401.5,366C 418.83,365.5 436.163,365.333 453.5,365.5 Z"/></g>
<g><path style="opacity:1" fill="#30a6f9" d="M 453.5,365.5 C 461.167,365.5 468.833,365.5 476.5,365.5C 476.667,378.504 476.5,391.504 476,404.5C 470.071,419.722 458.905,426.055 442.5,423.5C 447.263,418.316 450.763,412.316 453,405.5C 453.5,392.171 453.667,378.837 453.5,365.5 Z"/></g>
<g><path style="opacity:1" fill="#020405" d="M 75.5,375.5 C 84.8393,375.334 94.1726,375.5 103.5,376C 108.453,378.64 109.62,382.473 107,387.5C 105.829,388.893 104.329,389.727 102.5,390C 93.5,390.667 84.5,390.667 75.5,390C 68.9137,385.122 68.9137,380.288 75.5,375.5 Z"/></g>
<g><path style="opacity:1" fill="#020406" d="M 406.5,375.5 C 416.172,375.334 425.839,375.5 435.5,376C 442.406,381.146 442.073,385.813 434.5,390C 425.5,390.667 416.5,390.667 407.5,390C 401.367,385.613 401.033,380.78 406.5,375.5 Z"/></g>
<g><path style="opacity:1" fill="#084a63" d="M 43.5,435.5 C 46.054,436.606 48.7206,437.439 51.5,438C 66.8297,438.5 82.163,438.667 97.5,438.5C 98.7686,444.059 96.7686,447.892 91.5,450C 77.5,450.667 63.5,450.667 49.5,450C 44.3734,446.568 42.3734,441.734 43.5,435.5 Z"/></g>
<g><path style="opacity:1" fill="#084963" d="M 465.5,435.5 C 468.046,439.313 467.88,443.313 465,447.5C 463.829,448.893 462.329,449.727 460.5,450C 446.5,450.667 432.5,450.667 418.5,450C 414.095,447.422 412.428,443.589 413.5,438.5C 428.504,438.667 443.504,438.5 458.5,438C 461.004,437.302 463.337,436.469 465.5,435.5 Z"/></g>
</svg>
